<?xml version="1.0" encoding="utf-8"?>
<!-- Generator: Adobe Illustrator 24.0.1, SVG Export Plug-In . SVG Version: 6.00 Build 0)  -->
<svg version="1.1" id="Layer_1" xmlns="http://www.w3.org/2000/svg" xmlns:xlink="http://www.w3.org/1999/xlink" x="0px" y="0px"
	 viewBox="0 0 512 512" style="enable-background:new 0 0 512 512;" xml:space="preserve">
<style type="text/css">
	.st0{enable-background:new    ;}
	.st1{clip-path:url(#SVGID_2_);}
	.st2{fill:#358FD2;}
	.st3{clip-path:url(#SVGID_4_);}
	.st4{clip-path:url(#SVGID_6_);}
	.st5{clip-path:url(#SVGID_8_);}
	.st6{clip-path:url(#SVGID_10_);}
	.st7{clip-path:url(#SVGID_12_);}
	.st8{clip-path:url(#SVGID_14_);}
	.st9{clip-path:url(#SVGID_16_);}
	.st10{clip-path:url(#SVGID_18_);}
	.st11{clip-path:url(#SVGID_20_);}
	.st12{clip-path:url(#SVGID_22_);}
	.st13{clip-path:url(#SVGID_24_);}
	.st14{clip-path:url(#SVGID_26_);}
	.st15{fill:#FFFFFF;}
	.st16{clip-path:url(#SVGID_28_);}
	.st17{clip-path:url(#SVGID_30_);}
	.st18{clip-path:url(#SVGID_32_);}
	.st19{clip-path:url(#SVGID_34_);}
	.st20{clip-path:url(#SVGID_36_);}
	.st21{clip-path:url(#SVGID_38_);}
	.st22{clip-path:url(#SVGID_40_);}
	.st23{clip-path:url(#SVGID_42_);}
	.st24{clip-path:url(#SVGID_44_);}
	.st25{clip-path:url(#SVGID_46_);}
	.st26{clip-path:url(#SVGID_48_);}
	.st27{clip-path:url(#SVGID_50_);}
	.st28{clip-path:url(#SVGID_52_);}
	.st29{clip-path:url(#SVGID_54_);}
	.st30{clip-path:url(#SVGID_56_);}
	.st31{clip-path:url(#SVGID_58_);}
	.st32{clip-path:url(#SVGID_60_);}
	.st33{clip-path:url(#SVGID_62_);}
	.st34{clip-path:url(#SVGID_64_);}
	.st35{clip-path:url(#SVGID_66_);}
	.st36{clip-path:url(#SVGID_68_);}
	.st37{clip-path:url(#SVGID_70_);}
	.st38{clip-path:url(#SVGID_72_);}
	.st39{clip-path:url(#SVGID_74_);}
	.st40{clip-path:url(#SVGID_76_);}
	.st41{clip-path:url(#SVGID_78_);}
	.st42{clip-path:url(#SVGID_80_);}
	.st43{clip-path:url(#SVGID_82_);}
	.st44{clip-path:url(#SVGID_84_);}
	.st45{clip-path:url(#SVGID_86_);}
	.st46{clip-path:url(#SVGID_88_);}
	.st47{clip-path:url(#SVGID_90_);}
	.st48{clip-path:url(#SVGID_92_);}
	.st49{clip-path:url(#SVGID_94_);}
	.st50{clip-path:url(#SVGID_96_);}
	.st51{clip-path:url(#SVGID_98_);}
	.st52{clip-path:url(#SVGID_100_);}
	.st53{clip-path:url(#SVGID_102_);}
	.st54{clip-path:url(#SVGID_104_);}
	.st55{clip-path:url(#SVGID_106_);}
	.st56{clip-path:url(#SVGID_108_);}
	.st57{clip-path:url(#SVGID_110_);}
	.st58{clip-path:url(#SVGID_112_);}
</style>
<g>
	<g>
		<g>
			<g class="st0">
				<defs>
					<polygon id="SVGID_1_" class="st0" points="65.87,396.53 66.48,181.8 253.35,289.69 252.74,504.42 					"/>
				</defs>
				<clipPath id="SVGID_2_">
					<use xlink:href="#SVGID_1_"  style="overflow:visible;"/>
				</clipPath>
				<g class="st1">
					<g>
						<g>
							<g>
								<polyline class="st2" points="253.35,289.69 66.48,181.8 65.87,396.53 252.74,504.42 253.35,289.69 								"/>
							</g>
						</g>
					</g>
				</g>
			</g>
		</g>
	</g>
	<g>
		<g>
			<g class="st0">
				<defs>
					<polygon id="SVGID_3_" class="st0" points="259.26,504.42 258.65,289.69 445.52,181.8 446.13,396.53 					"/>
				</defs>
				<clipPath id="SVGID_4_">
					<use xlink:href="#SVGID_3_"  style="overflow:visible;"/>
				</clipPath>
				<g class="st3">
					<g>
						<g>
							<g>
								<polyline class="st2" points="445.52,181.8 258.65,289.69 259.26,504.42 446.13,396.53 445.52,181.8 								"/>
							</g>
						</g>
					</g>
				</g>
			</g>
		</g>
	</g>
	<g>
		<g>
			<g class="st0">
				<defs>
					<polygon id="SVGID_5_" class="st0" points="142.34,217.72 241.96,159.83 356.32,225.86 256.7,283.75 					"/>
				</defs>
				<clipPath id="SVGID_6_">
					<use xlink:href="#SVGID_5_"  style="overflow:visible;"/>
				</clipPath>
				<g class="st4">
					<g>
						<g>
							<g>
								<polyline class="st2" points="356.32,225.86 241.96,159.83 142.34,217.72 256.7,283.75 356.32,225.86 								"/>
							</g>
						</g>
					</g>
				</g>
			</g>
		</g>
	</g>
	<g>
		<g>
			<g class="st0">
				<defs>
					<polygon id="SVGID_7_" class="st0" points="245.19,119.29 318.68,76.58 436.42,144.56 362.93,187.27 					"/>
				</defs>
				<clipPath id="SVGID_8_">
					<use xlink:href="#SVGID_7_"  style="overflow:visible;"/>
				</clipPath>
				<g class="st5">
					<g>
						<g>
							<g>
								<polyline class="st2" points="436.42,144.56 318.68,76.58 245.19,119.29 362.93,187.27 436.42,144.56 								"/>
							</g>
						</g>
					</g>
				</g>
			</g>
		</g>
	</g>
	<g>
		<g>
			<g class="st0">
				<defs>
					<polygon id="SVGID_9_" class="st0" points="78.07,144.72 168.26,92.31 228.85,127.29 138.66,179.7 					"/>
				</defs>
				<clipPath id="SVGID_10_">
					<use xlink:href="#SVGID_9_"  style="overflow:visible;"/>
				</clipPath>
				<g class="st6">
					<g>
						<g>
							<g>
								<polyline class="st2" points="228.85,127.29 168.26,92.31 78.07,144.72 138.66,179.7 228.85,127.29 								"/>
							</g>
						</g>
					</g>
				</g>
			</g>
		</g>
	</g>
	<g>
		<g>
			<g class="st0">
				<defs>
					<polygon id="SVGID_11_" class="st0" points="175.2,53.97 245.1,13.35 300.25,45.2 230.35,85.81 					"/>
				</defs>
				<clipPath id="SVGID_12_">
					<use xlink:href="#SVGID_11_"  style="overflow:visible;"/>
				</clipPath>
				<g class="st7">
					<g>
						<g>
							<g>
								<polyline class="st2" points="300.25,45.2 245.1,13.35 175.2,53.97 230.35,85.81 300.25,45.2 								"/>
							</g>
						</g>
					</g>
				</g>
			</g>
		</g>
	</g>
	<g>
		<g>
			<g class="st0">
				<defs>
					<polygon id="SVGID_13_" class="st0" points="243.99,154.55 244.08,121.16 361.32,188.85 361.23,222.24 					"/>
				</defs>
				<clipPath id="SVGID_14_">
					<use xlink:href="#SVGID_13_"  style="overflow:visible;"/>
				</clipPath>
				<g class="st8">
					<g>
						<g>
							<g>
								<polyline class="st2" points="361.32,188.85 244.08,121.16 243.99,154.55 361.23,222.24 361.32,188.85 								"/>
							</g>
						</g>
					</g>
				</g>
			</g>
		</g>
	</g>
	<g>
		<g>
			<g class="st0">
				<defs>
					<polygon id="SVGID_15_" class="st0" points="76.23,179.56 76.32,146.17 137.97,181.76 137.88,215.15 					"/>
				</defs>
				<clipPath id="SVGID_16_">
					<use xlink:href="#SVGID_15_"  style="overflow:visible;"/>
				</clipPath>
				<g class="st9">
					<g>
						<g>
							<g>
								<polyline class="st2" points="137.97,181.76 76.32,146.17 76.23,179.56 137.88,215.15 137.97,181.76 								"/>
							</g>
						</g>
					</g>
				</g>
			</g>
		</g>
	</g>
	<g>
		<g>
			<g class="st0">
				<defs>
					<polygon id="SVGID_17_" class="st0" points="174.61,89.75 174.71,56.36 229.04,87.73 228.94,121.12 					"/>
				</defs>
				<clipPath id="SVGID_18_">
					<use xlink:href="#SVGID_17_"  style="overflow:visible;"/>
				</clipPath>
				<g class="st10">
					<g>
						<g>
							<g>
								<polyline class="st2" points="229.04,87.73 174.71,56.36 174.61,89.75 228.94,121.12 229.04,87.73 								"/>
							</g>
						</g>
					</g>
				</g>
			</g>
		</g>
	</g>
	<g>
		<g>
			<g class="st0">
				<defs>
					<polygon id="SVGID_19_" class="st0" points="364.87,221.64 364.78,188.26 437.17,146.46 437.26,179.85 					"/>
				</defs>
				<clipPath id="SVGID_20_">
					<use xlink:href="#SVGID_19_"  style="overflow:visible;"/>
				</clipPath>
				<g class="st11">
					<g>
						<g>
							<g>
								<polyline class="st2" points="437.17,146.46 364.78,188.26 364.87,221.64 437.26,179.85 437.17,146.46 								"/>
							</g>
						</g>
					</g>
				</g>
			</g>
		</g>
	</g>
	<g>
		<g>
			<g class="st0">
				<defs>
					<polygon id="SVGID_21_" class="st0" points="139.22,215.37 139.13,181.99 229.73,129.68 229.83,163.06 					"/>
				</defs>
				<clipPath id="SVGID_22_">
					<use xlink:href="#SVGID_21_"  style="overflow:visible;"/>
				</clipPath>
				<g class="st12">
					<g>
						<g>
							<g>
								<polyline class="st2" points="229.73,129.68 139.13,181.99 139.22,215.37 229.83,163.06 229.73,129.68 								"/>
							</g>
						</g>
					</g>
				</g>
			</g>
		</g>
	</g>
	<g>
		<g>
			<g class="st0">
				<defs>
					<polygon id="SVGID_23_" class="st0" points="232.56,121.62 232.47,88.24 300.66,48.87 300.76,82.25 					"/>
				</defs>
				<clipPath id="SVGID_24_">
					<use xlink:href="#SVGID_23_"  style="overflow:visible;"/>
				</clipPath>
				<g class="st13">
					<g>
						<g>
							<g>
								<polyline class="st2" points="300.66,48.87 232.47,88.24 232.56,121.62 300.76,82.25 300.66,48.87 								"/>
							</g>
						</g>
					</g>
				</g>
			</g>
		</g>
	</g>
	<g>
		<g>
			<g class="st0">
				<defs>
					<polygon id="SVGID_25_" class="st0" points="104.72,403.75 105.2,234.58 195.41,286.66 194.93,455.82 					"/>
				</defs>
				<clipPath id="SVGID_26_">
					<use xlink:href="#SVGID_25_"  style="overflow:visible;"/>
				</clipPath>
				<g class="st14">
					<g>
						<g>
							<g>
								<polyline class="st15" points="195.41,286.66 105.2,234.58 104.72,403.75 194.93,455.82 195.03,417.92 143.95,388.43 
									144.03,359.89 192.2,387.7 192.3,351.41 144.13,323.61 144.22,294.25 195.3,323.75 195.41,286.66 								"/>
							</g>
						</g>
					</g>
				</g>
			</g>
		</g>
	</g>
	<g>
		<g>
			<g class="st0">
				<defs>
					<polygon id="SVGID_27_" class="st0" points="276.42,474.08 276.02,331.91 432.51,241.56 432.91,383.73 					"/>
				</defs>
				<clipPath id="SVGID_28_">
					<use xlink:href="#SVGID_27_"  style="overflow:visible;"/>
				</clipPath>
				<g class="st16">
					<g>
						<g>
							<g>
								<path class="st15" d="M432.51,241.56l-31.14,17.98l-13.1,75.27c-0.5,2.62-1.03,5.73-1.56,9.31
									c-0.53,3.57-1.17,8.11-1.93,13.61c-0.63-3.92-1.24-7.36-1.81-10.34c-0.57-2.98-1.2-5.79-1.88-8.45l-14.41-59.38
									l-24.88,14.37l-14.03,76.19c-1.07,6.13-1.87,10.84-2.4,14.13c-0.53,3.29-1.02,6.43-1.48,9.42c-0.53-3.4-1.09-6.67-1.69-9.83
									c-0.6-3.15-1.22-6.3-1.84-9.44l-13.18-60.48l-31.14,17.98l32.32,123.74l28.67-16.55l13.59-68.64
									c0.61-2.94,1.5-7.9,2.67-14.86c0.45-2.72,0.81-4.85,1.06-6.35c0.32,1.37,0.73,3.31,1.26,5.79c1.2,5.53,2.06,9.22,2.58,11.05
									l14.16,52.62l28.59-16.51L432.51,241.56"/>
							</g>
						</g>
					</g>
				</g>
			</g>
		</g>
	</g>
</g>
</svg>
